<?xml version="1.0" encoding="utf-8"?>
<!-- Generator: Adobe Illustrator 24.0.1, SVG Export Plug-In . SVG Version: 6.00 Build 0)  -->
<svg version="1.1" id="Capa_1" xmlns="http://www.w3.org/2000/svg" xmlns:xlink="http://www.w3.org/1999/xlink" x="0px" y="0px"
	 viewBox="0 0 561 489.5" style="enable-background:new 0 0 561 489.5;" xml:space="preserve">
<style type="text/css">
	.st0{fill:#444444;}
	.st1{fill:#FFFFFF;}
</style>
<g>
	<g id="visibility">
		<path class="st0" d="M280.5,45.8C153,45.8,43.3,124.9,0,237.1c43.3,112.2,153,191.3,280.5,191.3s237.2-79,280.5-191.3
			C517.7,124.9,408,45.8,280.5,45.8z M280.5,364.6c-71.4,0-127.5-56.1-127.5-127.5s56.1-127.5,127.5-127.5S408,165.7,408,237.1
			S351.9,364.6,280.5,364.6z M280.5,160.6c-43.4,0-76.5,33.1-76.5,76.5s33.1,76.5,76.5,76.5s76.5-33.1,76.5-76.5
			S323.9,160.6,280.5,160.6z"/>
	</g>
</g>
<path class="st1" d="M190.4,484.4L155,466.6c-7.6-3.8-10.7-13.2-6.9-20.8L358.2,26.1c3.8-7.6,13.2-10.7,20.8-6.9l35.4,17.7
	c7.6,3.8,10.7,13.2,6.9,20.8L211.2,477.4C207.4,485.1,198,488.2,190.4,484.4z"/>
<path class="st0" d="M157.6,468l-29.5-14.8c-7.1-3.6-10-12.3-6.5-19.4l211-421.6c3.6-7.1,12.3-10,19.4-6.5l29.5,14.8
	c7.1,3.6,10,12.3,6.5,19.4l-211,421.6C173.5,468.6,164.8,471.5,157.6,468z"/>
</svg>
