<svg xmlns="http://www.w3.org/2000/svg" viewBox="0 0 59.33 59.37"><defs><style>.cls-1{fill:#fff;}</style></defs><g id="圖層_2" data-name="圖層 2"><g id="圖層_1-2" data-name="圖層 1"><path class="cls-1" d="M59.33,22.25H0V12.4H15.65a8.7,8.7,0,0,1-.15-7.13,8.53,8.53,0,0,1,3.45-4,8.71,8.71,0,0,1,10.73,1.3A8.63,8.63,0,0,1,36,0a8.45,8.45,0,0,1,4.93,1.66c3.29,2.39,4.19,5.79,2.81,10.71h15.6ZM27.17,12.44c0-1.48.07-2.8,0-4.12A3.68,3.68,0,0,0,23.53,5a3.76,3.76,0,0,0-3.73,3.1,3.56,3.56,0,0,0,2.67,4.14A34.55,34.55,0,0,0,27.17,12.44Zm5-.1c1.42,0,2.78.08,4.11,0a3.6,3.6,0,0,0,3.28-3.88,3.7,3.7,0,0,0-7.38-.07C32.08,9.66,32.14,11,32.14,12.34Z"/><path class="cls-1" d="M27.13,59.37H4.93V27.28h22.2Z"/><path class="cls-1" d="M54.36,59.37H32.17V27.28H54.36Z"/></g></g></svg>