<svg xmlns="http://www.w3.org/2000/svg" viewBox="0 0 53.46 57"><defs><style>.cls-1{fill:#fff;}</style></defs><g id="圖層_2" data-name="圖層 2"><g id="圖層_1-2" data-name="圖層 1"><path class="cls-1" d="M42.43,57A26.94,26.94,0,0,1,39,55.9a9.73,9.73,0,0,1-5.22-11.1c.16-.61,0-.86-.53-1.13-4.84-2.45-9.67-4.94-14.51-7.41L18.17,36a9.94,9.94,0,0,1-8.82,4.16,9.46,9.46,0,0,1-6.5-3,9.93,9.93,0,0,1,0-14,10,10,0,0,1,14.69.4l16.54-10a10.64,10.64,0,0,1-.67-4A10,10,0,0,1,42,.11,3.25,3.25,0,0,0,42.43,0h2a2.81,2.81,0,0,0,.31.1A10,10,0,1,1,37.9,18.3c-.76-.53-1.42-1.17-2.14-1.77L19.67,26.2c-.32.19-.32.37-.21.68A8.93,8.93,0,0,1,20,30.64c-.07.77-.24,1.53-.38,2.35l15.74,8,.33-.37a9.74,9.74,0,0,1,10.35-3.34,10,10,0,0,1,1.79,18.6A26.12,26.12,0,0,1,44.44,57Z"/></g></g></svg>